<svg width="20" height="20" viewBox="0 0 20 20" fill="none" xmlns="http://www.w3.org/2000/svg">
<g clip-path="url(#clip0_68_5)">
<path d="M0.426797 9.88029C0.426328 11.5607 0.868828 13.2014 1.71023 14.6477L0.346328 19.5889L5.44258 18.263C6.85213 19.0244 8.43144 19.4234 10.0363 19.4235H10.0405C15.3386 19.4235 19.6513 15.1457 19.6536 9.88781C19.6546 7.33998 18.6555 4.94416 16.8404 3.14168C15.0255 1.33936 12.6119 0.346256 10.0402 0.345093C4.74148 0.345093 0.429063 4.62261 0.426875 9.88029" fill="url(#paint0_linear_68_5)"/>
<path d="M0.0835938 9.87721C0.0830469 11.6181 0.541406 13.3175 1.41281 14.8155L0 19.9339L5.27898 18.5605C6.73352 19.3474 8.37117 19.7622 10.0376 19.7629H10.0419C15.53 19.7629 19.9977 15.3312 20 9.88512C20.0009 7.24574 18.9659 4.7638 17.0859 2.89674C15.2057 1.02992 12.7057 0.00108527 10.0419 0C4.55281 0 0.0858594 4.43101 0.0836719 9.87721H0.0835938ZM3.22734 14.5575L3.03023 14.2471C2.20164 12.9398 1.7643 11.4291 1.76492 9.87783C1.76672 5.35109 5.47953 1.66822 10.045 1.66822C12.2559 1.66915 14.3337 2.52434 15.8966 4.07597C17.4593 5.62775 18.3192 7.69054 18.3187 9.8845C18.3166 14.4112 14.6037 18.0946 10.0419 18.0946H10.0386C8.5532 18.0938 7.09641 17.698 5.82594 16.95L5.52359 16.7721L2.39094 17.5871L3.22734 14.5574V14.5575Z" fill="url(#paint1_linear_68_5)"/>
<path d="M7.55297 5.74789C7.36656 5.3368 7.17039 5.32851 6.99313 5.3213C6.84797 5.31509 6.68203 5.31556 6.51625 5.31556C6.35031 5.31556 6.0807 5.3775 5.85281 5.6244C5.62469 5.87153 4.98188 6.46874 4.98188 7.68339C4.98188 8.89812 5.87352 10.072 5.99781 10.2369C6.12227 10.4015 7.71914 12.9739 10.2482 13.9635C12.3501 14.7859 12.7778 14.6223 13.234 14.5811C13.6902 14.54 14.7062 13.984 14.9134 13.4075C15.1209 12.8311 15.1209 12.337 15.0587 12.2337C14.9965 12.1308 14.8305 12.069 14.5817 11.9456C14.3328 11.8221 13.1095 11.2249 12.8815 11.1425C12.6534 11.0601 12.4875 11.019 12.3216 11.2663C12.1556 11.5131 11.6791 12.069 11.5339 12.2337C11.3888 12.3987 11.2436 12.4193 10.9948 12.2958C10.7459 12.1719 9.94453 11.9115 8.99383 11.0705C8.25414 10.4161 7.75477 9.60796 7.60961 9.36075C7.46445 9.11393 7.59406 8.98013 7.71883 8.85711C7.83063 8.74649 7.96773 8.56882 8.09227 8.42471C8.21633 8.28052 8.25773 8.17765 8.3407 8.013C8.42375 7.84819 8.38219 7.70401 8.32008 7.58052C8.25773 7.45703 7.77422 6.2361 7.55297 5.74796" fill="white"/>
</g>
<defs>
<linearGradient id="paint0_linear_68_5" x1="9.99996" y1="19.5889" x2="9.99996" y2="0.345093" gradientUnits="userSpaceOnUse">
<stop stop-color="#1FAF38"/>
<stop offset="1" stop-color="#60D669"/>
</linearGradient>
<linearGradient id="paint1_linear_68_5" x1="10" y1="19.9339" x2="10" y2="0" gradientUnits="userSpaceOnUse">
<stop stop-color="#F9F9F9"/>
<stop offset="1" stop-color="white"/>
</linearGradient>
<clipPath id="clip0_68_5">
<rect width="20" height="20" fill="white"/>
</clipPath>
</defs>
</svg>
